<svg xmlns="http://www.w3.org/2000/svg" xmlns:xlink="http://www.w3.org/1999/xlink" width="2000" zoomAndPan="magnify" viewBox="0 0 1500 1499.999933" height="2000" preserveAspectRatio="xMidYMid meet" version="1.0"><defs><clipPath id="9a963b9ad4"><path d="M 62 49 L 1443 49 L 1443 1450 L 62 1450 Z M 62 49 " clip-rule="nonzero"/></clipPath><clipPath id="1594fa64c0"><path d="M 1089.667969 -13.023438 L 1621.695312 798.648438 L 532.148438 1512.820312 L 0.117188 701.144531 Z M 1089.667969 -13.023438 " clip-rule="nonzero"/></clipPath><clipPath id="9764d11928"><path d="M 1089.667969 -13.023438 L 1621.695312 798.648438 L 532.148438 1512.820312 L 0.117188 701.144531 Z M 1089.667969 -13.023438 " clip-rule="nonzero"/></clipPath></defs><g clip-path="url(#9a963b9ad4)"><g clip-path="url(#1594fa64c0)"><g clip-path="url(#9764d11928)"><path fill="#fcfefd" d="M 301.679688 960.390625 C 227.828125 847.71875 307.824219 697.960938 442.539062 696.703125 L 1320.054688 688.503906 C 1343.816406 688.28125 1367.015625 681.238281 1386.890625 668.210938 C 1444.179688 630.660156 1460.183594 553.769531 1422.628906 496.480469 L 1178.085938 123.394531 C 1128.84375 48.273438 1028.027344 27.292969 952.90625 76.53125 L 136.476562 611.675781 C 61.355469 660.917969 40.375 761.730469 89.613281 836.855469 L 443.246094 1376.359375 C 492.460938 1451.445312 593.207031 1472.449219 668.328125 1423.289062 L 910.808594 1264.59375 C 1000.863281 1205.65625 958.414062 1065.648438 850.792969 1066.648438 L 506.542969 1069.835938 C 424.078125 1070.601562 346.890625 1029.363281 301.679688 960.390625 Z M 301.679688 960.390625 " fill-opacity="1" fill-rule="nonzero"/></g></g></g></svg>