<svg xmlns="http://www.w3.org/2000/svg" xmlns:xlink="http://www.w3.org/1999/xlink" width="2000" zoomAndPan="magnify" viewBox="0 0 1500 1499.999933" height="2000" preserveAspectRatio="xMidYMid meet" version="1.0"><defs><g/><clipPath id="a265c2521d"><path d="M 32 33 L 733 33 L 733 743 L 32 743 Z M 32 33 " clip-rule="nonzero"/></clipPath><clipPath id="e88f5420da"><path d="M 553.304688 1.253906 L 823.054688 412.785156 L 270.832031 774.753906 L 1.082031 363.21875 Z M 553.304688 1.253906 " clip-rule="nonzero"/></clipPath><clipPath id="f37d354629"><path d="M 553.304688 1.253906 L 823.054688 412.785156 L 270.832031 774.753906 L 1.082031 363.21875 Z M 553.304688 1.253906 " clip-rule="nonzero"/></clipPath><clipPath id="07a4da6a17"><path d="M 307 389 L 1351.839844 389 L 1351.839844 545 L 307 545 Z M 307 389 " clip-rule="nonzero"/></clipPath><clipPath id="fa4ccaae7b"><rect x="0" width="1045" y="0" height="156"/></clipPath><clipPath id="be30e7a1d8"><rect x="0" width="414" y="0" height="105"/></clipPath><clipPath id="c7af21bd6d"><rect x="0" width="1352" y="0" height="776"/></clipPath></defs><g transform="matrix(1, 0, 0, 1, 74, 362)"><g clip-path="url(#c7af21bd6d)"><g clip-path="url(#a265c2521d)"><g clip-path="url(#e88f5420da)"><g clip-path="url(#f37d354629)"><path fill="#fcfefd" d="M 153.910156 494.632812 C 116.476562 437.523438 157.027344 361.621094 225.304688 360.980469 L 670.074219 356.824219 C 682.121094 356.710938 693.878906 353.144531 703.953125 346.539062 C 732.988281 327.507812 741.101562 288.535156 722.066406 259.496094 L 598.117188 70.398438 C 573.160156 32.324219 522.0625 21.6875 483.984375 46.648438 L 70.179688 317.886719 C 32.101562 342.84375 21.46875 393.941406 46.425781 432.019531 L 225.664062 705.46875 C 250.609375 743.523438 301.671875 754.171875 339.746094 729.253906 L 462.648438 648.816406 C 508.292969 618.945312 486.777344 547.984375 432.230469 548.488281 L 257.746094 550.105469 C 215.949219 550.492188 176.824219 529.589844 153.910156 494.632812 Z M 153.910156 494.632812 " fill-opacity="1" fill-rule="nonzero"/></g></g></g><g clip-path="url(#07a4da6a17)"><g transform="matrix(1, 0, 0, 1, 307, 389)"><g clip-path="url(#fa4ccaae7b)"><g fill="#fcfefd" fill-opacity="1"><g transform="translate(1.068559, 121.994201)"><g><path d="M 56.828125 1.703125 C 46.296875 1.703125 37.003906 -0.59375 28.953125 -5.1875 C 20.898438 -9.78125 14.601562 -16.332031 10.0625 -24.84375 C 5.519531 -33.363281 3.25 -43.554688 3.25 -55.421875 L 23.375 -55.421875 C 23.375 -48.304688 24.328125 -42.269531 26.234375 -37.3125 C 28.148438 -32.351562 30.734375 -28.351562 33.984375 -25.3125 C 37.234375 -22.269531 40.84375 -20.050781 44.8125 -18.65625 C 48.789062 -17.257812 52.796875 -16.5625 56.828125 -16.5625 C 62.503906 -16.5625 67.6875 -17.90625 72.375 -20.59375 C 77.070312 -23.28125 80.835938 -27.28125 83.671875 -32.59375 C 86.515625 -37.90625 87.9375 -44.535156 87.9375 -52.484375 L 87.9375 -90.578125 L 41.1875 -90.578125 L 41.1875 -108.375 L 109.3125 -108.375 L 109.3125 -52.484375 C 109.3125 -42.054688 107.191406 -32.765625 102.953125 -24.609375 C 98.722656 -16.460938 92.6875 -10.039062 84.84375 -5.34375 C 77 -0.644531 67.660156 1.703125 56.828125 1.703125 Z M 56.828125 1.703125 "/></g></g></g><g fill="#fcfefd" fill-opacity="1"><g transform="translate(110.840192, 121.994201)"><g><path d="M -3.5625 0 L 51.71875 -109 L 70.453125 -109 L 125.40625 0 L 101.71875 0 L 88.40625 -26.015625 L 32.828125 -26.015625 L 19.515625 0 Z M 41.796875 -43.96875 L 79.421875 -43.96875 L 68.59375 -67.34375 L 61.15625 -87.328125 L 53.109375 -67.046875 Z M 41.796875 -43.96875 "/></g></g></g><g fill="#fcfefd" fill-opacity="1"><g transform="translate(218.599069, 121.994201)"><g><path d="M 46.296875 0 L 46.296875 -42.265625 L -4.03125 -108.375 L 21.0625 -108.375 L 57.125 -60.390625 L 93.359375 -108.375 L 118.4375 -108.375 L 67.96875 -42.265625 L 67.96875 0 Z M 46.296875 0 "/></g></g></g><g fill="#fcfefd" fill-opacity="1"><g transform="translate(328.370703, 121.994201)"><g><path d="M 59.453125 2.625 C 51.085938 2.625 43.367188 1.207031 36.296875 -1.625 C 29.234375 -4.46875 23.117188 -8.441406 17.953125 -13.546875 C 12.796875 -18.660156 8.796875 -24.695312 5.953125 -31.65625 C 3.117188 -38.625 1.703125 -46.238281 1.703125 -54.5 C 1.703125 -62.757812 3.117188 -70.34375 5.953125 -77.25 C 8.796875 -84.164062 12.796875 -90.15625 17.953125 -95.21875 C 23.117188 -100.28125 29.234375 -104.203125 36.296875 -106.984375 C 43.367188 -109.773438 51.085938 -111.171875 59.453125 -111.171875 C 66.472656 -111.171875 73.363281 -110.035156 80.125 -107.765625 C 86.882812 -105.492188 92.945312 -101.851562 98.3125 -96.84375 C 103.675781 -91.832031 107.859375 -85.148438 110.859375 -76.796875 L 93.046875 -70.453125 C 90.671875 -76.128906 87.648438 -80.539062 83.984375 -83.6875 C 80.328125 -86.832031 76.378906 -89.050781 72.140625 -90.34375 C 67.910156 -91.632812 63.679688 -92.28125 59.453125 -92.28125 C 52.429688 -92.28125 46.238281 -90.675781 40.875 -87.46875 C 35.507812 -84.269531 31.300781 -79.832031 28.25 -74.15625 C 25.207031 -68.476562 23.6875 -61.925781 23.6875 -54.5 C 23.6875 -47.164062 25.207031 -40.582031 28.25 -34.75 C 31.300781 -28.925781 35.507812 -24.363281 40.875 -21.0625 C 46.238281 -17.757812 52.429688 -16.109375 59.453125 -16.109375 C 63.679688 -16.109375 67.910156 -16.800781 72.140625 -18.1875 C 76.378906 -19.582031 80.328125 -21.957031 83.984375 -25.3125 C 87.648438 -28.664062 90.671875 -33.179688 93.046875 -38.859375 L 111.78125 -32.984375 C 108.269531 -24.304688 103.78125 -17.359375 98.3125 -12.140625 C 92.84375 -6.929688 86.78125 -3.164062 80.125 -0.84375 C 73.46875 1.464844 66.578125 2.625 59.453125 2.625 Z M 59.453125 2.625 "/></g></g></g><g fill="#fcfefd" fill-opacity="1"><g transform="translate(446.038482, 121.994201)"><g><path d="M 59.921875 1.546875 C 51.660156 1.546875 44.046875 0.179688 37.078125 -2.546875 C 30.109375 -5.285156 24.066406 -9.179688 18.953125 -14.234375 C 13.847656 -19.296875 9.875 -25.257812 7.03125 -32.125 C 4.195312 -38.988281 2.78125 -46.5 2.78125 -54.65625 C 2.78125 -62.8125 4.195312 -70.296875 7.03125 -77.109375 C 9.875 -83.921875 13.847656 -89.828125 18.953125 -94.828125 C 24.066406 -99.835938 30.109375 -103.707031 37.078125 -106.4375 C 44.046875 -109.175781 51.660156 -110.546875 59.921875 -110.546875 C 68.273438 -110.546875 75.9375 -109.175781 82.90625 -106.4375 C 89.875 -103.707031 95.910156 -99.835938 101.015625 -94.828125 C 106.128906 -89.828125 110.078125 -83.921875 112.859375 -77.109375 C 115.648438 -70.296875 117.046875 -62.8125 117.046875 -54.65625 C 117.046875 -46.5 115.648438 -38.988281 112.859375 -32.125 C 110.078125 -25.257812 106.128906 -19.296875 101.015625 -14.234375 C 95.910156 -9.179688 89.875 -5.285156 82.90625 -2.546875 C 75.9375 0.179688 68.273438 1.546875 59.921875 1.546875 Z M 59.921875 -16.875 C 66.941406 -16.875 73.132812 -18.523438 78.5 -21.828125 C 83.863281 -25.128906 88.039062 -29.617188 91.03125 -35.296875 C 94.03125 -40.972656 95.53125 -47.425781 95.53125 -54.65625 C 95.53125 -61.882812 94.03125 -68.332031 91.03125 -74 C 88.039062 -79.675781 83.863281 -84.140625 78.5 -87.390625 C 73.132812 -90.648438 66.941406 -92.28125 59.921875 -92.28125 C 53.003906 -92.28125 46.859375 -90.648438 41.484375 -87.390625 C 36.117188 -84.140625 31.941406 -79.675781 28.953125 -74 C 25.960938 -68.332031 24.46875 -61.882812 24.46875 -54.65625 C 24.46875 -47.425781 25.960938 -40.972656 28.953125 -35.296875 C 31.941406 -29.617188 36.117188 -25.128906 41.484375 -21.828125 C 46.859375 -18.523438 53.003906 -16.875 59.921875 -16.875 Z M 59.921875 -16.875 "/></g></g></g><g fill="#fcfefd" fill-opacity="1"><g transform="translate(572.221688, 121.994201)"><g><path d="M 7.734375 0 L 7.734375 -108.375 L 26.9375 -108.375 L 83.140625 -43.203125 L 95.0625 -26.328125 L 95.53125 -26.46875 L 93.671875 -46.90625 L 93.671875 -108.375 L 114.421875 -108.375 L 114.421875 0 L 93.359375 0 L 37 -66.734375 L 27.5625 -81.59375 L 26.78125 -81.4375 L 28.796875 -64.25 L 28.796875 0 Z M 7.734375 0 "/></g></g></g><g fill="#fcfefd" fill-opacity="1"><g transform="translate(698.559712, 121.994201)"><g><path d="M 56.671875 2.625 C 50.785156 2.625 44.742188 2.109375 38.546875 1.078125 C 32.359375 0.046875 26.523438 -1.726562 21.046875 -4.25 C 15.578125 -6.78125 11.007812 -10.394531 7.34375 -15.09375 C 3.6875 -19.789062 1.5 -25.753906 0.78125 -32.984375 L 22.140625 -35.609375 C 22.554688 -31.484375 23.898438 -28.101562 26.171875 -25.46875 C 28.441406 -22.832031 31.28125 -20.789062 34.6875 -19.34375 C 38.09375 -17.90625 41.703125 -16.898438 45.515625 -16.328125 C 49.335938 -15.765625 52.953125 -15.484375 56.359375 -15.484375 C 58.421875 -15.484375 61.15625 -15.660156 64.5625 -16.015625 C 67.96875 -16.378906 71.398438 -17.078125 74.859375 -18.109375 C 78.316406 -19.140625 81.285156 -20.632812 83.765625 -22.59375 C 86.242188 -24.5625 87.632812 -27.09375 87.9375 -30.1875 C 88.25 -33.800781 87.5 -36.640625 85.6875 -38.703125 C 83.882812 -40.765625 81.4375 -42.3125 78.34375 -43.34375 C 75.25 -44.382812 71.816406 -45.109375 68.046875 -45.515625 C 64.273438 -45.929688 60.535156 -46.191406 56.828125 -46.296875 L 49.546875 -46.609375 C 44.484375 -46.804688 39.191406 -47.265625 33.671875 -47.984375 C 28.148438 -48.710938 23.015625 -50.054688 18.265625 -52.015625 C 13.515625 -53.984375 9.644531 -56.898438 6.65625 -60.765625 C 3.664062 -64.640625 2.171875 -69.828125 2.171875 -76.328125 C 2.171875 -82.003906 3.304688 -86.851562 5.578125 -90.875 C 7.847656 -94.90625 10.890625 -98.207031 14.703125 -100.78125 C 18.523438 -103.363281 22.785156 -105.378906 27.484375 -106.828125 C 32.179688 -108.273438 36.976562 -109.28125 41.875 -109.84375 C 46.78125 -110.414062 51.453125 -110.703125 55.890625 -110.703125 C 61.460938 -110.703125 67.164062 -110.285156 73 -109.453125 C 78.832031 -108.628906 84.222656 -107.109375 89.171875 -104.890625 C 94.128906 -102.671875 98.207031 -99.421875 101.40625 -95.140625 C 104.613281 -90.859375 106.421875 -85.3125 106.828125 -78.5 L 85.46875 -76.328125 C 85.15625 -79.835938 83.941406 -82.726562 81.828125 -85 C 79.710938 -87.269531 77.101562 -89.023438 74 -90.265625 C 70.90625 -91.503906 67.707031 -92.351562 64.40625 -92.8125 C 61.101562 -93.28125 58.109375 -93.515625 55.421875 -93.515625 C 53.566406 -93.515625 50.9375 -93.332031 47.53125 -92.96875 C 44.125 -92.613281 40.640625 -91.894531 37.078125 -90.8125 C 33.515625 -89.726562 30.492188 -88.070312 28.015625 -85.84375 C 25.546875 -83.625 24.3125 -80.609375 24.3125 -76.796875 C 24.3125 -73.179688 25.519531 -70.492188 27.9375 -68.734375 C 30.363281 -66.984375 33.515625 -65.796875 37.390625 -65.171875 C 41.265625 -64.554688 45.421875 -64.144531 49.859375 -63.9375 C 57.285156 -63.84375 64.582031 -63.40625 71.75 -62.625 C 78.925781 -61.851562 85.40625 -60.410156 91.1875 -58.296875 C 96.96875 -56.179688 101.5625 -53.054688 104.96875 -48.921875 C 108.375 -44.796875 110.078125 -39.328125 110.078125 -32.515625 C 110.078125 -26.210938 108.398438 -20.738281 105.046875 -16.09375 C 101.691406 -11.457031 97.304688 -7.691406 91.890625 -4.796875 C 86.472656 -1.910156 80.664062 0.0976562 74.46875 1.234375 C 69.519531 2.160156 63.585938 2.625 56.671875 2.625 Z M 56.671875 2.625 "/></g></g></g><g fill="#fcfefd" fill-opacity="1"><g transform="translate(812.666497, 121.994201)"><g><path d="M 40.71875 0 L 40.71875 -89.953125 L -1.390625 -89.953125 L -1.390625 -108.375 L 104.359375 -108.375 L 104.359375 -89.953125 L 62.390625 -89.953125 L 62.390625 0 Z M 40.71875 0 "/></g></g></g><g fill="#fcfefd" fill-opacity="1"><g transform="translate(924.760546, 121.994201)"><g><path d="M 46.296875 0 L 46.296875 -42.265625 L -4.03125 -108.375 L 21.0625 -108.375 L 57.125 -60.390625 L 93.359375 -108.375 L 118.4375 -108.375 L 67.96875 -42.265625 L 67.96875 0 Z M 46.296875 0 "/></g></g></g></g></g></g><g transform="matrix(1, 0, 0, 1, 935, 554)"><g clip-path="url(#be30e7a1d8)"><g fill="#fcfefd" fill-opacity="1"><g transform="translate(1.425776, 82.151605)"><g><path d="M 43.5625 1.546875 C 37.988281 1.546875 32.878906 0.601562 28.234375 -1.28125 C 23.585938 -3.175781 19.5625 -5.828125 16.15625 -9.234375 C 12.75 -12.640625 10.113281 -16.644531 8.25 -21.25 C 6.394531 -25.863281 5.46875 -30.890625 5.46875 -36.328125 C 5.46875 -41.765625 6.394531 -46.769531 8.25 -51.34375 C 10.113281 -55.925781 12.75 -59.898438 16.15625 -63.265625 C 19.5625 -66.640625 23.585938 -69.253906 28.234375 -71.109375 C 32.878906 -72.972656 37.988281 -73.90625 43.5625 -73.90625 C 48.164062 -73.90625 52.703125 -73.195312 57.171875 -71.78125 C 61.648438 -70.375 65.644531 -68.171875 69.15625 -65.171875 C 72.664062 -62.179688 75.242188 -58.347656 76.890625 -53.671875 L 69.5625 -52.015625 C 67.988281 -55.671875 65.820312 -58.5625 63.0625 -60.6875 C 60.3125 -62.820312 57.25 -64.351562 53.875 -65.28125 C 50.507812 -66.207031 47.070312 -66.671875 43.5625 -66.671875 C 37.78125 -66.671875 32.6875 -65.398438 28.28125 -62.859375 C 23.875 -60.316406 20.414062 -56.753906 17.90625 -52.171875 C 15.394531 -47.597656 14.140625 -42.316406 14.140625 -36.328125 C 14.140625 -30.347656 15.394531 -25.066406 17.90625 -20.484375 C 20.414062 -15.910156 23.875 -12.316406 28.28125 -9.703125 C 32.6875 -7.085938 37.78125 -5.78125 43.5625 -5.78125 C 46.863281 -5.78125 50.234375 -6.296875 53.671875 -7.328125 C 57.109375 -8.359375 60.238281 -9.972656 63.0625 -12.171875 C 65.882812 -14.378906 68.019531 -17.203125 69.46875 -20.640625 L 76.890625 -19 C 74.972656 -14.25 72.273438 -10.359375 68.796875 -7.328125 C 65.316406 -4.296875 61.390625 -2.054688 57.015625 -0.609375 C 52.648438 0.824219 48.164062 1.546875 43.5625 1.546875 Z M 43.5625 1.546875 "/></g></g></g><g fill="#fcfefd" fill-opacity="1"><g transform="translate(80.696701, 82.151605)"><g><path d="M 1.4375 0 L 38.5 -72.96875 L 47.171875 -72.96875 L 84.125 0 L 74.734375 0 L 65.125 -19 L 20.4375 -19 L 10.84375 0 Z M 24.046875 -26.109375 L 61.515625 -26.109375 L 42.828125 -63.0625 Z M 24.046875 -26.109375 "/></g></g></g><g fill="#fcfefd" fill-opacity="1"><g transform="translate(165.231717, 82.151605)"><g><path d="M 9.59375 0 L 9.59375 -72.25 L 46.765625 -72.25 C 49.992188 -72.25 53.460938 -71.867188 57.171875 -71.109375 C 60.890625 -70.359375 64.195312 -68.8125 67.09375 -66.46875 C 69.5 -64.539062 71.320312 -62.113281 72.5625 -59.1875 C 73.800781 -56.269531 74.421875 -53.265625 74.421875 -50.171875 C 74.421875 -47.003906 73.765625 -43.921875 72.453125 -40.921875 C 71.148438 -37.929688 69.191406 -35.4375 66.578125 -33.4375 C 64.367188 -31.71875 61.734375 -30.394531 58.671875 -29.46875 C 55.617188 -28.539062 52.09375 -28.039062 48.09375 -27.96875 L 48.09375 -27.875 L 46.234375 -27.875 L 74.53125 -0.515625 L 74.53125 0 L 63.796875 0 L 34.984375 -27.875 L 18.171875 -27.875 L 18.171875 0 Z M 18.171875 -34.984375 L 48 -34.984375 C 53.914062 -35.191406 58.351562 -36.570312 61.3125 -39.125 C 62.820312 -40.425781 63.957031 -42.070312 64.71875 -44.0625 C 65.476562 -46.0625 65.859375 -48.128906 65.859375 -50.265625 C 65.859375 -52.328125 65.515625 -54.320312 64.828125 -56.25 C 64.140625 -58.175781 63.101562 -59.726562 61.71875 -60.90625 C 59.59375 -62.757812 57.097656 -63.925781 54.234375 -64.40625 C 51.378906 -64.882812 48.890625 -65.125 46.765625 -65.125 L 18.171875 -65.125 Z M 18.171875 -34.984375 "/></g></g></g><g fill="#fcfefd" fill-opacity="1"><g transform="translate(242.851164, 82.151605)"><g><path d="M 43.25 1.4375 C 37.675781 1.4375 32.566406 0.507812 27.921875 -1.34375 C 23.273438 -3.195312 19.25 -5.789062 15.84375 -9.125 C 12.4375 -12.46875 9.785156 -16.425781 7.890625 -21 C 6.003906 -25.582031 5.0625 -30.585938 5.0625 -36.015625 C 5.0625 -41.523438 6.003906 -46.582031 7.890625 -51.1875 C 9.785156 -55.800781 12.4375 -59.796875 15.84375 -63.171875 C 19.25 -66.546875 23.273438 -69.175781 27.921875 -71.0625 C 32.566406 -72.957031 37.675781 -73.90625 43.25 -73.90625 C 47.863281 -73.90625 52.351562 -73.195312 56.71875 -71.78125 C 61.082031 -70.375 65.003906 -68.171875 68.484375 -65.171875 C 71.960938 -62.179688 74.523438 -58.316406 76.171875 -53.578125 L 68.84375 -52.015625 C 67.195312 -55.671875 65.03125 -58.546875 62.34375 -60.640625 C 59.65625 -62.742188 56.675781 -64.257812 53.40625 -65.1875 C 50.144531 -66.113281 46.757812 -66.578125 43.25 -66.578125 C 37.46875 -66.578125 32.359375 -65.285156 27.921875 -62.703125 C 23.484375 -60.117188 20.007812 -56.519531 17.5 -51.90625 C 14.988281 -47.300781 13.734375 -42.003906 13.734375 -36.015625 C 13.734375 -30.035156 14.988281 -24.773438 17.5 -20.234375 C 20.007812 -15.691406 23.484375 -12.144531 27.921875 -9.59375 C 32.359375 -7.050781 37.46875 -5.78125 43.25 -5.78125 C 46.550781 -5.78125 49.90625 -6.191406 53.3125 -7.015625 C 56.71875 -7.835938 59.847656 -9.210938 62.703125 -11.140625 C 65.554688 -13.066406 67.707031 -15.71875 69.15625 -19.09375 L 69.15625 -31.375 L 42.109375 -31.375 L 42.109375 -38.5 L 76.6875 -38.5 L 76.6875 -17.65625 C 74.757812 -12.96875 72.039062 -9.210938 68.53125 -6.390625 C 65.019531 -3.578125 61.082031 -1.566406 56.71875 -0.359375 C 52.351562 0.835938 47.863281 1.4375 43.25 1.4375 Z M 43.25 1.4375 "/></g></g></g><g fill="#fcfefd" fill-opacity="1"><g transform="translate(326.766862, 82.151605)"><g><path d="M 43.65625 1.140625 C 38.082031 1.140625 32.972656 0.210938 28.328125 -1.640625 C 23.679688 -3.503906 19.65625 -6.101562 16.25 -9.4375 C 12.84375 -12.78125 10.210938 -16.753906 8.359375 -21.359375 C 6.503906 -25.972656 5.578125 -31 5.578125 -36.4375 C 5.578125 -41.875 6.503906 -46.878906 8.359375 -51.453125 C 10.210938 -56.023438 12.84375 -59.976562 16.25 -63.3125 C 19.65625 -66.65625 23.679688 -69.253906 28.328125 -71.109375 C 32.972656 -72.972656 38.082031 -73.90625 43.65625 -73.90625 C 49.226562 -73.90625 54.335938 -72.972656 58.984375 -71.109375 C 63.628906 -69.253906 67.65625 -66.65625 71.0625 -63.3125 C 74.46875 -59.976562 77.097656 -56.023438 78.953125 -51.453125 C 80.816406 -46.878906 81.75 -41.875 81.75 -36.4375 C 81.75 -31 80.816406 -25.972656 78.953125 -21.359375 C 77.097656 -16.753906 74.46875 -12.78125 71.0625 -9.4375 C 67.65625 -6.101562 63.628906 -3.503906 58.984375 -1.640625 C 54.335938 0.210938 49.226562 1.140625 43.65625 1.140625 Z M 43.65625 -6.09375 C 49.4375 -6.09375 54.546875 -7.378906 58.984375 -9.953125 C 63.421875 -12.535156 66.894531 -16.113281 69.40625 -20.6875 C 71.925781 -25.269531 73.1875 -30.519531 73.1875 -36.4375 C 73.1875 -42.425781 71.925781 -47.691406 69.40625 -52.234375 C 66.894531 -56.773438 63.421875 -60.316406 58.984375 -62.859375 C 54.546875 -65.398438 49.4375 -66.671875 43.65625 -66.671875 C 37.875 -66.671875 32.765625 -65.398438 28.328125 -62.859375 C 23.890625 -60.316406 20.414062 -56.773438 17.90625 -52.234375 C 15.394531 -47.691406 14.140625 -42.425781 14.140625 -36.4375 C 14.140625 -30.519531 15.394531 -25.269531 17.90625 -20.6875 C 20.414062 -16.113281 23.890625 -12.535156 28.328125 -9.953125 C 32.765625 -7.378906 37.875 -6.09375 43.65625 -6.09375 Z M 43.65625 -6.09375 "/></g></g></g></g></g></g></g></svg>